<svg width="32" height="32" viewBox="0 0 34 32" fill="none" xmlns="http://www.w3.org/2000/svg">
  <path d="M20.137 32C22.898 32 25.184 29.743 24.673 27.029C24.353 25.327 23.868 23.659 23.224 22.05C21.96 18.896 20.109 16.03 17.775 13.615C15.44 11.201 12.669 9.286 9.619 7.979C8.114 7.334 6.555 6.844 4.965 6.512C2.262 5.949 0 8.239 0 11V27C0 29.761 2.239 32 5 32H20.137Z" fill="#1652F0"/>
  <path d="M13.701 32C10.94 32 8.654 29.743 9.165 27.029C9.485 25.327 9.97 23.659 10.615 22.05C11.878 18.896 13.73 16.03 16.064 13.615C18.398 11.201 21.169 9.286 24.219 7.979C25.724 7.334 27.283 6.844 28.873 6.512C31.577 5.949 33.838 8.239 33.838 11V27C33.838 29.761 31.6 32 28.838 32H13.701Z" fill="#19C6FF"/>
</svg>
